<svg id="visual" viewBox="0 0 960 150" width="960" height="150" xmlns="http://www.w3.org/2000/svg" xmlns:xlink="http://www.w3.org/1999/xlink" version="1.1"><path d="M0 46L16 48.3C32 50.7 64 55.3 96 57.3C128 59.3 160 58.7 192 56.3C224 54 256 50 288 46.8C320 43.7 352 41.3 384 41.5C416 41.7 448 44.3 480 46.8C512 49.3 544 51.7 576 53.2C608 54.7 640 55.3 672 55.8C704 56.3 736 56.7 768 55.8C800 55 832 53 864 51.3C896 49.7 928 48.3 944 47.7L960 47L960 0L944 0C928 0 896 0 864 0C832 0 800 0 768 0C736 0 704 0 672 0C640 0 608 0 576 0C544 0 512 0 480 0C448 0 416 0 384 0C352 0 320 0 288 0C256 0 224 0 192 0C160 0 128 0 96 0C64 0 32 0 16 0L0 0Z" fill="#fa7268"></path><path d="M0 44L16 42C32 40 64 36 96 36.2C128 36.3 160 40.7 192 43C224 45.3 256 45.7 288 45.2C320 44.7 352 43.3 384 41.2C416 39 448 36 480 37C512 38 544 43 576 42.8C608 42.7 640 37.3 672 37.5C704 37.7 736 43.3 768 44.3C800 45.3 832 41.7 864 41.3C896 41 928 44 944 45.5L960 47L960 0L944 0C928 0 896 0 864 0C832 0 800 0 768 0C736 0 704 0 672 0C640 0 608 0 576 0C544 0 512 0 480 0C448 0 416 0 384 0C352 0 320 0 288 0C256 0 224 0 192 0C160 0 128 0 96 0C64 0 32 0 16 0L0 0Z" fill="#ef5f67"></path><path d="M0 24L16 25.3C32 26.7 64 29.3 96 30.5C128 31.7 160 31.3 192 31.8C224 32.3 256 33.7 288 34.3C320 35 352 35 384 34C416 33 448 31 480 31.3C512 31.7 544 34.3 576 35.8C608 37.3 640 37.7 672 35.3C704 33 736 28 768 27.2C800 26.3 832 29.7 864 30.3C896 31 928 29 944 28L960 27L960 0L944 0C928 0 896 0 864 0C832 0 800 0 768 0C736 0 704 0 672 0C640 0 608 0 576 0C544 0 512 0 480 0C448 0 416 0 384 0C352 0 320 0 288 0C256 0 224 0 192 0C160 0 128 0 96 0C64 0 32 0 16 0L0 0Z" fill="#e34c67"></path><path d="M0 27L16 27C32 27 64 27 96 26.2C128 25.3 160 23.7 192 22.7C224 21.7 256 21.3 288 20C320 18.7 352 16.3 384 16C416 15.7 448 17.3 480 18.5C512 19.7 544 20.3 576 20.2C608 20 640 19 672 18C704 17 736 16 768 17.3C800 18.7 832 22.3 864 23.5C896 24.7 928 23.3 944 22.7L960 22L960 0L944 0C928 0 896 0 864 0C832 0 800 0 768 0C736 0 704 0 672 0C640 0 608 0 576 0C544 0 512 0 480 0C448 0 416 0 384 0C352 0 320 0 288 0C256 0 224 0 192 0C160 0 128 0 96 0C64 0 32 0 16 0L0 0Z" fill="#d53867"></path><path d="M0 10L16 9.3C32 8.7 64 7.3 96 7.7C128 8 160 10 192 10.7C224 11.3 256 10.7 288 9.7C320 8.7 352 7.3 384 8.5C416 9.7 448 13.3 480 13.8C512 14.3 544 11.7 576 11.5C608 11.3 640 13.7 672 13.3C704 13 736 10 768 9.3C800 8.7 832 10.3 864 11.2C896 12 928 12 944 12L960 12L960 0L944 0C928 0 896 0 864 0C832 0 800 0 768 0C736 0 704 0 672 0C640 0 608 0 576 0C544 0 512 0 480 0C448 0 416 0 384 0C352 0 320 0 288 0C256 0 224 0 192 0C160 0 128 0 96 0C64 0 32 0 16 0L0 0Z" fill="#c62368"></path></svg>