<svg id="visual" viewBox="0 0 960 300" width="960" height="300" xmlns="http://www.w3.org/2000/svg" xmlns:xlink="http://www.w3.org/1999/xlink" version="1.1"><rect x="0" y="0" width="960" height="300" fill="#001220"></rect><path d="M0 101L22.8 99.7C45.7 98.3 91.3 95.7 137 92.3C182.7 89 228.3 85 274 89C319.7 93 365.3 105 411.2 108C457 111 503 105 548.8 98.8C594.7 92.7 640.3 86.3 686 88.3C731.7 90.3 777.3 100.7 823 103.2C868.7 105.7 914.3 100.3 937.2 97.7L960 95L960 0L937.2 0C914.3 0 868.7 0 823 0C777.3 0 731.7 0 686 0C640.3 0 594.7 0 548.8 0C503 0 457 0 411.2 0C365.3 0 319.7 0 274 0C228.3 0 182.7 0 137 0C91.3 0 45.7 0 22.8 0L0 0Z" fill="#fa7268"></path><path d="M0 77L22.8 78C45.7 79 91.3 81 137 84.5C182.7 88 228.3 93 274 89.2C319.7 85.3 365.3 72.7 411.2 72.5C457 72.3 503 84.7 548.8 89C594.7 93.3 640.3 89.7 686 88.2C731.7 86.7 777.3 87.3 823 89.5C868.7 91.7 914.3 95.3 937.2 97.2L960 99L960 0L937.2 0C914.3 0 868.7 0 823 0C777.3 0 731.7 0 686 0C640.3 0 594.7 0 548.8 0C503 0 457 0 411.2 0C365.3 0 319.7 0 274 0C228.3 0 182.7 0 137 0C91.3 0 45.7 0 22.8 0L0 0Z" fill="#ef5f67"></path><path d="M0 78L22.8 72.8C45.7 67.7 91.3 57.3 137 57.5C182.7 57.7 228.3 68.3 274 70C319.7 71.7 365.3 64.3 411.2 60C457 55.7 503 54.3 548.8 58C594.7 61.7 640.3 70.3 686 70.5C731.7 70.7 777.3 62.3 823 56.7C868.7 51 914.3 48 937.2 46.5L960 45L960 0L937.2 0C914.3 0 868.7 0 823 0C777.3 0 731.7 0 686 0C640.3 0 594.7 0 548.8 0C503 0 457 0 411.2 0C365.3 0 319.7 0 274 0C228.3 0 182.7 0 137 0C91.3 0 45.7 0 22.8 0L0 0Z" fill="#e34c67"></path><path d="M0 45L22.8 45.2C45.7 45.3 91.3 45.7 137 45.3C182.7 45 228.3 44 274 45.7C319.7 47.3 365.3 51.7 411.2 49.5C457 47.3 503 38.7 548.8 36.2C594.7 33.7 640.3 37.3 686 39.2C731.7 41 777.3 41 823 43.5C868.7 46 914.3 51 937.2 53.5L960 56L960 0L937.2 0C914.3 0 868.7 0 823 0C777.3 0 731.7 0 686 0C640.3 0 594.7 0 548.8 0C503 0 457 0 411.2 0C365.3 0 319.7 0 274 0C228.3 0 182.7 0 137 0C91.3 0 45.7 0 22.8 0L0 0Z" fill="#d53867"></path><path d="M0 35L22.8 33.7C45.7 32.3 91.3 29.7 137 28.2C182.7 26.7 228.3 26.3 274 26.7C319.7 27 365.3 28 411.2 28.3C457 28.7 503 28.3 548.8 27.2C594.7 26 640.3 24 686 24.5C731.7 25 777.3 28 823 27.3C868.7 26.7 914.3 22.3 937.2 20.2L960 18L960 0L937.2 0C914.3 0 868.7 0 823 0C777.3 0 731.7 0 686 0C640.3 0 594.7 0 548.8 0C503 0 457 0 411.2 0C365.3 0 319.7 0 274 0C228.3 0 182.7 0 137 0C91.3 0 45.7 0 22.8 0L0 0Z" fill="#c62368"></path></svg>